#!OML:ASF F:\VICON\USERDATA\INSTALL\rory3\rory3.ASF
:FULLY-SPECIFIED
:DEGREES
1234
root 10.7496 18.0027 -6.68267 181.413 51.7358 179
lowerback 5.85798 1.35002 3.1762
upperback 3.06743 2.15676 3.06622
thorax -0.127958 1.16573 1.2458
lowerneck -8.11278 -1.1372 -3.86335
upperneck 33.1938 3.35618 -5.08584
head 12.3988 1.2587 -0.646821
rclavicle -5.46658e-014 -9.85972e-014
rhumerus -33.9733 -3.80456 -75.8073
rradius 30.1695
rwrist -7.43559
rhand -12.2767 15.9733
rfingers 7.12502
rthumb 13.7904 -13.5497
lclavicle -5.46658e-014 -9.85972e-014
lhumerus -40.311 -2.5524 83.2169
lradius 37.2783
lwrist 14.3042
lhand -4.07704 28.9097
lfingers 7.12502
lthumb 21.68 57.7158
rfemur -12.7991 0.0614859 24.2037
rtibia 22.2958
rfoot -11.7315 -15.0582
rtoes -8.92153
lfemur -30.5633 2.2147 -20.9662
ltibia 67.0313
lfoot -3.19998 0.836248
ltoes -20.7885
1235
root 10.8013 17.9949 -6.70437 181.209 51.5697 178.823
lowerback 5.95334 1.37793 3.16128
upperback 3.10209 2.19623 3.00261
thorax -0.143281 1.18576 1.18424
lowerneck -8.14196 -1.14679 -3.89323
upperneck 33.267 3.36391 -5.0557
head 12.4352 1.26444 -0.628416
rclavicle 1.37161e-014 -3.81667e-014
rhumerus -33.8931 -3.77293 -75.8244
rradius 30.1133
rwrist -7.40333
rhand -12.2888 16.0995
rfingers 7.12502
rthumb 13.7787 -13.4242
lclavicle 1.37161e-014 -3.81667e-014
lhumerus -40.2274 -2.54478 83.1316
lradius 37.7292
lwrist 14.6952
lhand -4.09913 28.7312
lfingers 7.12502
lthumb 21.6588 57.5398
rfemur -12.6992 0.117581 24.1395
rtibia 22.6438
rfoot -12.0562 -15.33
rtoes -9.04952
lfemur -30.827 2.23273 -21.224
ltibia 66.1643
lfoot -3.57479 1.21315
ltoes -21.0886
1236
root 10.8529 17.9853 -6.7277 181.262 51.4572 178.905
lowerback 5.97937 1.41385 3.30179
upperback 3.12065 2.25317 2.98028
thorax -0.13208 1.21667 1.07924
lowerneck -8.15043 -1.16433 -3.99203
upperneck 33.3433 3.35034 -4.95519
head 12.4662 1.26092 -0.573856
rclavicle 3.45885e-014 0
rhumerus -33.7728 -3.74979 -75.8584
rradius 30.0053
rwrist -7.38337
rhand -12.1934 16.2475
rfingers 7.12502
rthumb 13.8707 -13.2699
lclavicle 3.45885e-014 0
lhumerus -40.1775 -2.4241 82.9988
lradius 38.2454
lwrist 15.0659
lhand -4.01882 28.5396
lfingers 7.12502
lthumb 21.7359 57.3392
rfemur -12.6697 0.177521 24.2546
rtibia 23.0077
rfoot -12.3396 -15.5751
rtoes -9.1221
lfemur -31.112 2.35303 -21.3196
ltibia 65.2163
lfoot -3.92225 1.6413
ltoes -20.9185
1237
root 10.9045 17.9739 -6.75121 181.434 51.2972 179.042
lowerback 5.91342 1.41302 3.39112
upperback 3.12286 2.25588 3.0299
thorax -0.0916467 1.22014 1.08247
lowerneck -8.00279 -1.09866 -4.05786
upperneck 33.2252 3.45678 -4.98702
head 12.3882 1.30467 -0.560638
rclavicle -4.25399e-014 5.08889e-014
rhumerus -33.6822 -3.40712 -75.8852
rradius 30.0444
rwrist -7.51275
rhand -12.1737 16.0934
rfingers 7.12502
rthumb 13.8896 -13.4228
lclavicle -4.25399e-014 5.08889e-014
lhumerus -40.1608 -2.37757 83.0541
lradius 38.8098
lwrist 15.5027
lhand -4.35944 28.4081
lfingers 7.12502
lthumb 21.4088 57.2453
rfemur -12.662 0.307229 24.3903
rtibia 23.3183
rfoot -12.8615 -15.6796
rtoes -7.55051
lfemur -31.4047 2.43126 -21.3934
ltibia 64.1821
lfoot -4.33622 2.02683
ltoes -19.1659
1238
root 10.9564 17.966 -6.77492 181.404 51.1581 178.974
lowerback 5.88395 1.48622 3.47983
upperback 3.12871 2.35247 2.94416
thorax -0.0614078 1.26916 0.940502
lowerneck -7.81744 -1.07676 -4.03787
upperneck 33.1457 3.45807 -4.93076
head 12.314 1.32431 -0.542415
rclavicle 1.18078e-013 3.81667e-014
rhumerus -33.7033 -3.31739 -75.9502
rradius 30.1275
rwrist -7.59647
rhand -12.2193 16.0328
rfingers 7.12502
rthumb 13.8457 -13.4863
lclavicle 1.18078e-013 3.81667e-014
lhumerus -40.0702 -2.6652 83.0972
lradius 39.3367
lwrist 15.9751
lhand -4.58031 28.4404
lfingers 7.12502
lthumb 21.1966 57.3016
rfemur -12.625 0.41063 24.3939
rtibia 23.6253
rfoot -13.3692 -15.7836
rtoes -6.53587
lfemur -31.5525 2.41552 -21.5574
ltibia 63.0779
lfoot -4.70646 2.18279
ltoes -16.1162
1239
root 11.009 17.9593 -6.80045 181.313 51.0001 178.865
lowerback 5.84052 1.54948 3.54992
upperback 3.15895 2.43368 2.85193
thorax 0.00162698 1.31122 0.804365
lowerneck -7.80261 -1.08582 -4.16526
upperneck 33.2474 3.43083 -4.7157
head 12.3468 1.32607 -0.440941
rclavicle -2.64384e-014 4.77083e-015
rhumerus -33.6873 -3.32505 -76.0215
rradius 30.1429
rwrist -7.57727
rhand -12.2519 16.041
rfingers 7.12502
rthumb 13.8143 -13.4803
lclavicle -2.64384e-014 4.77083e-015
lhumerus -39.9742 -2.74061 83.0309
lradius 39.9069
lwrist 16.1834
lhand -4.41146 28.3996
lfingers 7.12502
lthumb 21.3588 57.2424
rfemur -12.5856 0.284637 24.3928
rtibia 23.892
rfoot -13.4359 -16.0854
rtoes -8.32509
lfemur -31.6684 2.40037 -21.7592
ltibia 61.9309
lfoot -5.00772 2.50231
ltoes -16.5668
